<?xml version="1.0" encoding="UTF-8" standalone="no"?>
<!DOCTYPE svg PUBLIC "-//W3C//DTD SVG 1.1//EN" "http://www.w3.org/Graphics/SVG/1.1/DTD/svg11.dtd">
<svg version="1.1" xmlns="http://www.w3.org/2000/svg" xmlns:xlink="http://www.w3.org/1999/xlink" preserveAspectRatio="xMidYMid meet" viewBox="0 0 640 640" width="16" height="16"><defs><path d="M357.59 23.91C363.12 18.58 363.27 9.77 357.94 4.25C352.6 -1.28 343.79 -1.43 338.27 3.9C338.15 4.02 338.04 4.13 337.93 4.25C307.32 34.85 62.52 279.66 31.91 310.26C26.48 315.69 26.48 324.49 31.91 329.93C62.52 360.53 307.32 605.34 337.93 635.94C343.45 641.28 352.26 641.12 357.59 635.6C362.8 630.21 362.8 621.66 357.59 616.27C337.85 596.52 239.12 497.79 61.4 320.08C239.12 142.38 337.85 43.66 357.59 23.91Z" id="a2gHTmHYKO"></path><path d="M588.3 4.22C557.7 34.82 312.89 279.63 282.29 310.23C276.86 315.66 276.86 324.47 282.29 329.9C312.89 360.5 557.7 605.31 588.3 635.91C593.82 641.25 602.63 641.1 607.97 635.57C613.17 630.18 613.17 621.63 607.97 616.24C588.22 596.5 489.49 497.78 311.78 320.08C489.49 142.38 588.22 43.66 607.97 23.91C613.41 18.49 613.42 9.68 607.99 4.24C607.98 4.24 607.98 4.23 607.97 4.22C602.54 -1.21 593.73 -1.21 588.3 4.22Z" id="a1svBxfF7"></path><path d="M337.9 635.94C307.3 605.34 62.49 360.53 31.89 329.93C26.46 324.5 26.46 315.69 31.89 310.26C62.49 279.66 307.3 34.85 337.9 4.25C343.24 -1.28 352.04 -1.43 357.57 3.9C363.09 9.24 363.25 18.05 357.91 23.57C357.8 23.69 357.68 23.8 357.57 23.91C337.82 43.66 239.1 142.38 61.4 320.08C239.12 497.78 337.85 596.5 357.59 616.24C363.03 621.67 363.04 630.48 357.62 635.91C355 638.54 351.45 640.01 347.75 640C344.05 640.01 340.51 638.55 337.9 635.94Z" id="d6IrUsiK71"></path><path d="M588.27 635.94C557.67 605.34 312.86 360.53 282.26 329.93C276.83 324.5 276.83 315.69 282.26 310.26C312.86 279.66 557.67 34.85 588.27 4.25C593.61 -1.28 602.41 -1.43 607.94 3.9C613.47 9.24 613.62 18.05 608.28 23.57C608.17 23.69 608.06 23.8 607.94 23.91C588.2 43.66 489.47 142.38 311.78 320.08C489.49 497.78 588.22 596.5 607.97 616.24C613.41 621.67 613.42 630.48 607.99 635.91C605.38 638.54 601.82 640.01 598.12 640C594.43 640.01 590.89 638.55 588.27 635.94Z" id="b5oixr0Rlg"></path></defs><g><g><g><use xlink:href="#a2gHTmHYKO" opacity="1" fill="#009688" fill-opacity="1"></use><g><use xlink:href="#a2gHTmHYKO" opacity="1" fill-opacity="0" stroke="#000000" stroke-width="1" stroke-opacity="0"></use></g></g><g><use xlink:href="#a1svBxfF7" opacity="1" fill="#009688" fill-opacity="1"></use><g><use xlink:href="#a1svBxfF7" opacity="1" fill-opacity="0" stroke="#000000" stroke-width="1" stroke-opacity="0"></use></g></g><g><use xlink:href="#d6IrUsiK71" opacity="1" fill="#000000" fill-opacity="1"></use><g><use xlink:href="#d6IrUsiK71" opacity="1" fill-opacity="0" stroke="#000000" stroke-width="1" stroke-opacity="0"></use></g></g><g><use xlink:href="#b5oixr0Rlg" opacity="1" fill="#000000" fill-opacity="1"></use><g><use xlink:href="#b5oixr0Rlg" opacity="1" fill-opacity="0" stroke="#000000" stroke-width="1" stroke-opacity="0"></use></g></g></g></g></svg>